# xmcd
#
# Track frame offsets: 
#        150
#        18159
#        80232
#        115991
#        163456
#
# Disc length: 2384 seconds
#
# Revision: 0
# Processed by: cddbd v1.5.2PL0 Copyright (c) Steve Scherf et al.
# Submitted via: ExactAudioCopy v0.99pb3
#
DISCID=3d094e05
DTITLE=Vindkast - Archaic Collapse [DigiCD]
DYEAR=2016
DGENRE=Black Metal
TTITLE0=A Lament Beneath the Fiery Sky
TTITLE1=Under This Dying Sun
TTITLE2=Archaic Collapse
TTITLE3=Unto the Earth
TTITLE4=Death's Other Kingdom
EXTD=
EXTT0=
EXTT1=
EXTT2=
EXTT3=
EXTT4=
PLAYORDER=
